<svg xmlns="http://www.w3.org/2000/svg" width="255" height="255" viewBox="-351.941 408.059 255 255" enable-background="new -351.941 408.059 255 255"><path d="M-351.94 408.06h255v255h-255z"/><path fill="#fff" d="M-134.523 605.032c-27.225 9.51-59.842 1.736-77.62-15.596-2.747-2.312-12.44-12.812-16.2-17.305-8.52-10.006-19.902-25.843-29.62-38.237v50.568h-13.814v-100.2c15.47 12.63 31.097 37.68 42.786 52.756 0 0 22.71 30.57 32.203 41.41 7.332 9.018 20.07 18.885 28.953 22.187 11.887 4.735 23.957 5.468 33.31 3.468v.952zm-179.72-137.875v-.952c27.224-9.506 59.843-1.737 77.618 15.594 2.748 2.31 12.438 12.813 16.198 17.304 8.523 10.01 19.906 25.845 29.623 38.24v-50.57h13.813v100.204c-15.47-12.63-31.1-37.68-42.788-52.753 0 0-22.71-30.573-32.203-41.412-7.333-9.015-20.072-18.886-28.954-22.187-11.885-4.738-23.954-5.468-33.31-3.47"/></svg>